<?xml version="1.0" standalone="no"?>
<!DOCTYPE svg PUBLIC "-//W3C//DTD SVG 20010904//EN"
 "http://www.w3.org/TR/2001/REC-SVG-20010904/DTD/svg10.dtd">
<svg version="1.0" xmlns="http://www.w3.org/2000/svg"
 width="512.000000pt" height="512.000000pt" viewBox="0 0 512.000000 512.000000"
 preserveAspectRatio="xMidYMid meet">
<metadata>
Created by potrace 1.14, written by Peter Selinger 2001-2017
</metadata>
<g transform="translate(0.000000,512.000000) scale(0.100000,-0.100000)"
fill="#000000" stroke="none">
<path d="M650 4830 c5 -16 11 -34 15 -40 3 -5 8 -18 10 -27 2 -10 17 -54 33
-98 16 -44 51 -138 77 -210 26 -71 49 -137 52 -145 3 -8 7 -20 8 -25 2 -6 14
-40 28 -75 68 -177 169 -469 173 -503 3 -22 -2 -61 -12 -90 -18 -54 -54 -93
-225 -247 -88 -79 -99 -89 -218 -198 -52 -48 -105 -96 -117 -107 -12 -11 -61
-56 -109 -100 -48 -44 -100 -92 -116 -106 -16 -14 -29 -29 -29 -33 0 -3 101
-107 225 -231 l226 -225 -156 -156 c-142 -143 -169 -174 -147 -174 8 0 240
-143 259 -159 7 -6 14 -11 17 -11 2 0 31 -17 65 -38 33 -20 136 -84 228 -141
92 -57 191 -118 218 -136 28 -17 78 -49 113 -69 82 -49 87 -55 243 -257 72
-94 137 -179 145 -188 22 -26 241 -310 302 -391 31 -41 59 -77 62 -80 3 -3 21
-25 40 -50 65 -85 95 -113 168 -161 103 -68 207 -100 322 -101 131 0 235 30
342 102 81 53 103 75 203 205 38 50 72 92 75 95 3 3 25 32 50 65 24 33 50 66
57 75 7 8 49 62 93 120 45 58 87 112 93 120 7 8 43 56 81 105 38 50 89 115
113 145 24 30 47 60 51 65 46 62 75 95 84 95 5 0 28 13 51 29 37 25 173 110
219 136 57 32 522 322 532 331 6 6 16 13 22 15 5 2 42 24 81 48 l71 44 -159
158 -160 159 226 225 c124 124 225 229 225 234 0 5 -12 19 -27 31 -16 12 -68
59 -118 105 -93 85 -111 102 -205 187 -30 28 -80 73 -110 102 -30 28 -102 94
-160 146 -145 131 -174 163 -192 209 -26 65 -16 122 57 321 37 102 76 210 87
240 10 30 23 64 28 75 5 11 18 47 29 80 11 33 29 85 40 115 11 30 49 136 85
234 36 99 64 181 62 183 -2 3 -60 -20 -182 -73 -17 -8 -78 -33 -135 -58 -498
-210 -964 -408 -1000 -424 -124 -55 -281 -102 -399 -118 -70 -10 -328 -10
-400 0 -98 14 -236 54 -364 105 -68 28 -133 54 -143 60 -10 5 -99 43 -198 85
-273 114 -446 186 -490 206 -22 10 -69 30 -105 45 -36 14 -78 32 -95 40 -16 7
-75 32 -130 55 -55 23 -119 51 -142 61 -54 24 -53 24 -43 -11z"/>
</g>
</svg>
